<?xml version="1.0" encoding="UTF-8"?>
<svg id="Layer_1" data-name="Layer 1" xmlns="http://www.w3.org/2000/svg" xmlns:xlink="http://www.w3.org/1999/xlink" viewBox="0 0 259.41 380.2">
  <defs>
    <style>
      .cls-1 {
        fill: url(#linear-gradient-4);
      }

      .cls-1, .cls-2, .cls-3, .cls-4, .cls-5, .cls-6, .cls-7 {
        stroke: #231f20;
        stroke-miterlimit: 10;
      }

      .cls-2 {
        fill: url(#linear-gradient-3);
      }

      .cls-3 {
        fill: url(#linear-gradient-2);
      }

      .cls-4 {
        fill: url(#linear-gradient-5);
      }

      .cls-5 {
        fill: #d1d3d4;
      }

      .cls-6 {
        fill: #939598;
      }

      .cls-7 {
        fill: url(#linear-gradient);
      }
    </style>
    <linearGradient id="linear-gradient" x1="103.91" y1="81.72" x2="158.9" y2="113.47" gradientTransform="translate(-45.92 99.69) rotate(-30)" gradientUnits="userSpaceOnUse">
      <stop offset="0" stop-color="#fff"/>
      <stop offset=".35" stop-color="#fddeb0"/>
      <stop offset=".66" stop-color="#fcc573"/>
      <stop offset=".88" stop-color="#fbb54e"/>
      <stop offset="1" stop-color="#fbb040"/>
    </linearGradient>
    <linearGradient id="linear-gradient-2" x1="98.28" y1="207.97" x2="143.21" y2="207.97" gradientTransform="translate(-134.86 75.62) rotate(-30)" xlink:href="#linear-gradient"/>
    <linearGradient id="linear-gradient-3" x1="121.59" y1="-12.92" x2="166.52" y2="-12.92" gradientTransform="translate(44.13 124.88) rotate(-30)" xlink:href="#linear-gradient"/>
    <linearGradient id="linear-gradient-4" x1="120.27" y1="-34.74" x2="172.35" y2="-34.74" gradientTransform="translate(61.86 129.71) rotate(-30)" xlink:href="#linear-gradient"/>
    <linearGradient id="linear-gradient-5" x1="61.54" y1="234.04" x2="61.54" y2="251.76" gradientUnits="userSpaceOnUse">
      <stop offset="0" stop-color="#fff"/>
      <stop offset=".09" stop-color="#f3fbfe"/>
      <stop offset=".24" stop-color="#d6f2fc"/>
      <stop offset=".44" stop-color="#a6e2f9"/>
      <stop offset=".68" stop-color="#64cdf5"/>
      <stop offset=".95" stop-color="#10b3f0"/>
      <stop offset="1" stop-color="#00aeef"/>
    </linearGradient>
  </defs>
  <g>
    <rect class="cls-7" x="86.09" y="41.46" width="63.95" height="154.09" transform="translate(75.07 -43.15) rotate(30)"/>
    <rect class="cls-3" x="54.51" y="183.66" width="38.38" height="23.38" transform="translate(107.55 -10.68) rotate(30)"/>
    <rect class="cls-2" x="143.24" y="29.97" width="38.38" height="23.38" transform="translate(42.59 -75.63) rotate(30)"/>
    <rect class="cls-1" x="144.51" y="20.63" width="53.38" height="11.69" transform="translate(36.17 -82.05) rotate(30)"/>
  </g>
  <path class="cls-5" d="m82.82,249.3c11.57,17.28,36.07,31.31,58.29,31.31,35.55,0,64.37-29.08,64.37-64.95,0-26.9-16.21-49.99-39.31-59.85l22.8-30.98c32.17,17.29,54.06,51.48,54.06,90.83,0,56.8-45.63,102.84-101.92,102.84-44.61,0-88.52-28.92-102.33-69.2h44.05Z"/>
  <circle class="cls-6" cx="164.53" cy="131.07" r="26.44"/>
  <g>
    <polyline class="cls-5" points="176.37 290.22 197.24 338.39 104.72 338.39 125.6 290.19 176.43 290.19"/>
    <circle class="cls-6" cx="150.98" cy="300.88" r="27.62"/>
  </g>
  <path class="cls-6" d="m18.95,338.39h218.31c6.86,0,12.44,5.57,12.44,12.44v20.38c0,1.14-.92,2.06-2.06,2.06H9.01c-1.14,0-2.06-.92-2.06-2.06v-20.82c0-6.62,5.38-12,12-12Z"/>
  <rect class="cls-4" x="6.95" y="235.49" width="109.17" height="13.7"/>
</svg>